<svg width="24" height="24" viewBox="0 0 24 24" fill="none" xmlns="http://www.w3.org/2000/svg">
<path d="M15.2656 19.2347C15.336 19.305 15.3755 19.4005 15.3755 19.5C15.3755 19.5995 15.336 19.6949 15.2656 19.7653C15.1952 19.8356 15.0998 19.8752 15.0003 19.8752C14.9008 19.8752 14.8053 19.8356 14.735 19.7653L7.23498 12.2653C7.20012 12.2304 7.17246 12.1891 7.15358 12.1436C7.13471 12.098 7.125 12.0492 7.125 12C7.125 11.9507 7.13471 11.9019 7.15358 11.8564C7.17246 11.8108 7.20012 11.7695 7.23498 11.7347L14.735 4.23465C14.7698 4.19981 14.8112 4.17217 14.8567 4.15332C14.9022 4.13446 14.951 4.12476 15.0003 4.12476C15.0496 4.12476 15.0984 4.13446 15.1439 4.15332C15.1894 4.17217 15.2308 4.19981 15.2656 4.23465C15.3004 4.26949 15.3281 4.31086 15.3469 4.35638C15.3658 4.4019 15.3755 4.45069 15.3755 4.49996C15.3755 4.54924 15.3658 4.59803 15.3469 4.64355C15.3281 4.68907 15.3004 4.73044 15.2656 4.76528L8.03092 12L15.2656 19.2347Z" fill="#78809B"/>
</svg>
